<svg width="1806" height="445" viewBox="0 0 1806 445" fill="none" xmlns="http://www.w3.org/2000/svg">
<path d="M1463.35 50.0726C1453.37 58.0077 1441.84 58.4221 1429.63 58.4171C962.627 58.2244 495.628 58.254 28.6297 58.2555C24.2964 58.2555 19.9632 58.2772 14.0849 58.2741C12.1227 58.8832 11.7055 59.507 11.2884 60.1308C11.0954 62.7735 10.7342 65.4162 10.7336 68.059C10.7063 187.377 10.7107 306.695 10.7114 426.013C10.7115 428.337 10.7114 430.662 10.7114 432.884C18.3397 435.037 1582.12 435.966 1606.48 433.814C1606.48 430.486 1606.48 426.964 1606.48 423.441C1606.48 393.445 1606.48 363.449 1606.49 333.453C1606.49 329.537 1605.55 325.167 1612.04 322.909C1615.54 321.19 1616.98 322.033 1617.78 324.295C1617.62 339.944 1617.38 355.594 1617.33 371.244C1617.25 392.24 1617.31 413.238 1617.31 434.234C1617.31 437.491 1617.31 440.748 1617.31 444.594C1077.96 444.594 539.539 444.594 0.63623 444.594C0.411834 442.157 0.0239863 439.908 0.0234673 437.659C-0.00634773 310.011 -0.00601179 182.363 0.0146782 54.715C0.0150142 52.7319 0.30603 50.7489 1.09271 48.1247C5.71426 47.5912 9.70447 47.793 13.6947 47.7932C490.431 47.8074 967.167 47.806 1443.9 47.8145C1449.9 47.8147 1455.89 47.9329 1462.66 48.5709C1463.43 49.1456 1463.35 50.0726 1463.35 50.0726Z" fill="#2C2928"/>
<path d="M1678.69 0.71228C1679.38 0.643432 1680.08 0.574584 1681.25 0.281982C1687.79 0.0550534 1693.85 0.05188 1700.82 0C1703.91 0.816895 1706.08 1.68256 1709.27 3.17737C1712.1 4.65326 1713.91 5.50006 1715.71 6.34686C1730.17 18.3525 1737.34 33.5233 1735.61 53.9982C1735.41 56.3823 1735.39 57.2621 1735.37 58.1419C1731.73 65.2525 1728.08 72.3631 1723.63 80.3605C1721.2 82.9592 1719.59 84.671 1717.98 86.3828C1704.92 95.24 1690.98 97.7852 1674.69 91.5764C1668.54 87.2742 1663.62 83.6103 1658.69 79.9465C1647.95 65.5754 1644.07 49.5823 1649.74 32.4619C1652.15 25.1786 1657.44 18.8498 1662.35 11.2238C1668.41 7.14423 1673.55 3.92822 1678.69 0.71228ZM1715.95 71.3216C1723.7 61.9717 1725.93 51.2307 1723.8 39.4748C1721.18 25.0852 1709.36 13.4597 1695.9 11.877C1680.19 10.0291 1666.61 18.6647 1660.94 34.1124C1655.07 50.0944 1660.67 68.4163 1674.14 77.6355C1685.14 85.168 1703.33 85.6213 1715.95 71.3216Z" fill="#302D2C"/>
<path d="M1648.33 104.804C1649.74 107.061 1651.15 109.318 1653.14 112.482C1654.55 114.531 1655.37 115.672 1656.2 116.813C1660.74 128.147 1665.28 139.481 1670.03 152.079C1670.72 154.332 1671.2 155.32 1671.68 156.309C1672.43 164.857 1673.8 173.407 1673.77 181.953C1673.74 191.499 1672.44 201.042 1671.37 212.065C1670.49 216.413 1669.94 219.282 1669.39 222.152C1665.29 231.615 1661.18 241.078 1656.37 251.685C1651.45 259.092 1647.25 265.356 1643.04 271.62C1643.04 271.62 1643.72 272.298 1642.83 272.232C1640.43 274.125 1638.92 276.084 1637.41 278.043C1637.41 278.043 1637.66 278.221 1637.06 278.23C1635.35 279.573 1634.25 280.907 1633.14 282.241C1632.12 283.017 1631.1 283.793 1629.15 285.361C1625.27 288.761 1622.31 291.369 1619.36 293.977C1619.36 293.977 1619.62 294.195 1618.93 294.166C1616.7 295.424 1615.17 296.71 1613.63 297.997C1598.5 306.425 1582.97 313.6 1565.79 317.187C1490.58 332.89 1415.89 280.55 1405.4 204.482C1396.18 137.747 1434.89 75.6359 1498.9 55.4621C1520.81 48.5579 1543.39 47.9592 1567.51 52.563C1571.87 53.4587 1574.73 54.0418 1577.6 54.625C1586.47 58.5135 1595.35 62.4019 1605.25 66.9647C1608.78 69.009 1611.28 70.3791 1613.78 71.7492C1613.78 71.7492 1614.33 72.4137 1615.11 73.065C1628.45 82.2417 1638.68 93.2235 1648.33 104.804ZM1563.69 116.482C1565.78 114.495 1567.87 112.509 1571.44 109.896C1584.31 105.372 1591.69 108.704 1595.77 121.233C1598.91 130.89 1598.56 140.618 1594.25 150.263C1593.48 150.285 1592.71 150.306 1591.92 148.701C1593.78 141.506 1594.37 134.332 1592.01 127.093C1587.97 114.692 1577.62 111.434 1568.32 120.396C1556.11 132.159 1552.14 146.969 1556.15 163.318C1559.17 175.618 1570.53 178.644 1579.83 169.805C1583.83 166.002 1586.56 160.848 1591.05 156.315C1591.84 156.317 1592.63 156.319 1593.76 157.861C1597.28 159.653 1598.55 156.897 1599.45 154.614C1604.04 142.91 1605.82 130.74 1602.93 118.432C1598.31 98.7545 1583.43 94.3712 1568.14 107.836C1567.39 108.49 1566.79 109.305 1565.07 110.454C1563.89 112.343 1562.71 114.233 1560.6 116.689C1560.53 117.501 1560.46 118.313 1560.38 119.125C1561.1 118.408 1561.83 117.691 1563.69 116.482ZM1552.61 122.365C1550.37 114.095 1548.99 105.456 1545.66 97.6527C1542.03 89.1402 1535.48 82.3868 1525.28 82.4459C1515.12 82.5047 1509.14 89.4766 1504.69 97.6521C1498.11 109.718 1496.5 122.81 1497.78 136.31C1497.91 137.712 1499.4 138.985 1501.25 141.875C1501.25 135.891 1501.07 131.904 1501.29 127.94C1501.85 117.77 1504.6 108.239 1510.93 100.115C1519.77 88.7717 1532.32 88.816 1541.11 100.147C1546.55 107.157 1549.08 115.376 1549.96 125.721C1550.15 129.645 1550.34 133.569 1550.56 138.266C1554.56 133.405 1554.4 128.747 1552.61 122.365ZM1485.66 124.918C1486.18 125.069 1486.69 125.219 1487.2 125.37C1486.76 124.966 1486.31 124.562 1485.27 122.889C1469.88 110.459 1455.05 119.598 1449.25 132.33C1444.87 141.967 1443.15 152.022 1444.46 162.49C1446.56 179.15 1452.69 193.769 1467.04 203.65C1455.58 217.888 1454.54 232.191 1463.87 245.265C1469.87 253.661 1477.96 259.71 1487.92 262.119C1494.57 263.728 1501.7 263.791 1508.61 263.794C1515.18 263.798 1520.85 264.562 1525.77 269.785C1531.7 276.076 1539.89 278.382 1548.22 279.716C1567.46 282.802 1588.21 273.086 1595.83 257.587C1600.79 247.476 1599.25 239.432 1589.67 229.811C1595.53 242.508 1591.81 252.089 1583.24 260.278C1569.98 272.944 1544.75 276.119 1530.55 264.74C1521.49 257.49 1512.71 255.501 1502.11 256.738C1500.49 256.927 1498.79 256.62 1497.14 256.391C1468.58 252.414 1455.89 224.387 1472.74 201.709C1471.81 200.903 1470.86 200.076 1469.91 199.253C1453.48 185.078 1447.38 159.115 1455.76 139.062C1461.26 125.898 1469.13 121.69 1483.2 124.308C1484.11 124.477 1485.12 124.104 1485.66 124.918ZM1486.78 240.229C1494.34 246.754 1502.88 250.939 1513.1 250.058C1520.41 249.429 1526.23 251.113 1532.19 256.044C1544.06 265.879 1564.84 265 1576.82 255.367C1586.44 247.63 1589.28 237.267 1582.76 228.261C1575.77 218.605 1571.56 208.169 1568.65 196.745C1565.52 184.504 1556.58 176.884 1544.91 173.194C1535.29 170.151 1525.19 170.356 1518.46 179.234C1510.35 189.942 1500.4 197.374 1487.86 202.056C1480.22 204.906 1477.21 211.516 1477.26 219.63C1477.32 227.41 1480.34 233.785 1486.78 240.229ZM1510.54 143.831C1511.08 145.038 1511.53 146.299 1512.19 147.443C1515.4 153.086 1519.22 158.406 1526.53 157.967C1533.62 157.541 1537.57 152.351 1540.21 146.383C1545.71 133.942 1545.74 121.292 1540.44 108.8C1537.74 102.441 1533.48 96.9342 1525.88 97.087C1518.83 97.229 1514.94 102.579 1511.97 108.404C1511.22 109.872 1510.58 111.422 1510.09 112.994C1506.99 122.757 1507.02 132.542 1510.54 143.831ZM1461.05 145.079C1458.55 156.125 1461.05 166.197 1467.38 175.326C1470.92 180.434 1475.74 184.366 1482.34 183.519C1489.37 182.618 1493.16 177.397 1495.32 171.109C1498.86 160.81 1497.67 150.719 1492.8 141.171C1489.2 134.121 1484.25 127.817 1475.35 128.596C1466.8 129.343 1463.39 136.027 1461.05 145.079ZM1614.7 164.207C1608.87 161.475 1603.55 163.459 1598.56 166.327C1588.24 172.262 1581.64 181.234 1578.58 192.672C1577.06 198.348 1577.07 204.227 1581.94 208.411C1587.23 212.953 1593.28 211.578 1598.79 208.699C1610.36 202.655 1617.62 193.129 1620.48 180.325C1621.8 174.379 1620.91 169.083 1614.7 164.207ZM1612.78 214.435C1624.51 204.336 1632.77 191.994 1635.28 176.599C1638.11 159.29 1627.34 147.621 1608.88 153.544C1611.45 154.129 1612.63 154.28 1613.72 154.662C1622.76 157.823 1626.23 162.179 1626.2 171.552C1626.19 175.809 1625.74 180.319 1624.29 184.276C1617.78 202.023 1606.62 215.376 1587.79 221.016C1586.64 221.361 1585.65 222.259 1584.34 223.055C1585.84 224.96 1587.06 226.507 1588.27 228.047C1596.18 223.771 1603.93 219.573 1612.78 214.435Z" fill="#282423"/>
<path d="M1109.2 207.284C1102.27 180.092 1095.55 153.701 1088.59 126.404C1094.33 126.404 1099.1 126.404 1104.86 126.404C1111.99 156.911 1119.15 187.606 1126.32 218.301C1131.36 208.956 1133.15 198.693 1135.88 188.735C1138.69 178.464 1141.32 168.144 1144.07 157.853C1146.81 147.58 1149.58 137.317 1152.52 126.398C1157.71 126.398 1162.85 126.398 1168.96 126.398C1176.17 156.844 1183.42 187.457 1190.67 218.07C1191.14 218.183 1191.61 218.297 1192.08 218.41C1200.02 187.751 1207.95 157.093 1215.97 126.147C1221.1 126.147 1225.66 126.147 1231.71 126.147C1220.67 165.247 1209.8 203.768 1198.84 242.597C1193.42 242.597 1188.52 242.597 1182.43 242.597C1175.22 212.546 1167.98 182.368 1160.74 152.191C1160.21 152.094 1159.69 151.997 1159.16 151.899C1150.93 182.036 1142.7 212.173 1134.4 242.565C1128.8 242.565 1123.91 242.565 1118.12 242.565C1115.24 231.17 1112.32 219.628 1109.2 207.284Z" fill="#EA2530"/>
<path d="M783.405 186.41C791.078 195.173 798.268 203.395 806.162 212.422C814.258 202.195 815.01 190.4 818.323 179.283C822.603 179.283 826.754 179.283 830.907 179.283C830.685 192.579 826.2 205.402 815.728 222.457C821.197 228.502 826.909 234.816 833.042 241.596C820.899 246.136 812.375 241.47 805.535 232.029C794.375 241.011 782.63 245.607 768.979 244.915C753.537 244.133 741.74 236.483 736.921 223.62C731.867 210.129 736.026 194.917 747.673 184.742C750.638 182.152 753.849 179.842 756.866 177.467C754.364 172.27 751.51 167.674 749.857 162.68C742.953 141.821 757.251 123.023 779.117 123.83C789.253 124.204 797.369 128.292 801.56 137.74C805.941 147.616 805.192 157.614 797.719 165.725C792.621 171.258 786.164 175.536 779.645 180.929C780.533 182.268 781.727 184.068 783.405 186.41ZM790.545 214.803C781.913 205.307 773.281 195.811 764.767 186.444C752.923 194.594 748.266 203.213 749.949 213.525C751.405 222.444 756.355 229.122 764.97 231.819C777.087 235.612 787.786 232.388 797.304 223.126C795.207 220.498 793.371 218.198 790.545 214.803ZM777.181 168.52C784.146 163.712 790.462 158.497 790.224 148.879C790.035 141.243 785.728 135.576 779.165 134.484C772.092 133.308 765.637 137.434 763.252 144.836C760.195 154.322 763.74 162.314 769.232 169.763C771.627 173.011 773.831 170.497 777.181 168.52Z" fill="#EA2530"/>
<path d="M972.836 175.347C975.476 166.593 976.802 158.086 980.662 150.95C991.841 130.286 1010.19 121.882 1033.19 124.184C1054.56 126.324 1068.45 138.629 1075.61 158.522C1081.19 174.037 1081.03 189.921 1076.66 205.683C1069.58 231.207 1049.16 245.764 1022.24 244.849C998.167 244.031 978.792 227.217 974.083 201.993C972.517 193.608 973.087 184.823 972.836 175.347ZM994.62 156.691C993.379 160.119 991.81 163.468 990.954 166.989C986.896 183.688 987.349 200.092 996.462 215.151C1010.81 238.852 1042.6 238.584 1055.86 214.264C1066.98 193.868 1066.72 172.65 1054.8 152.513C1044.93 135.846 1023.52 130.939 1007.98 141.6C1002.98 145.028 999.528 150.718 994.62 156.691Z" fill="#EA2530"/>
<path d="M336.912 201.868C339.364 224.445 329.799 237.998 308.654 242.203C293.935 245.13 279.114 245.197 264.055 242.402C264.055 203.856 264.055 166.03 264.055 127.434C280.648 124.229 296.961 122.657 313.226 127.767C323.788 131.085 331.287 137.779 333.133 149.194C335.032 160.939 330.248 169.896 320.626 176.516C319.341 177.4 318.136 178.403 316.214 179.87C325.608 185.065 334.003 190.449 336.912 201.868ZM318.066 197.395C307.54 185.126 293.693 186.626 279.146 186.853C279.146 195.446 278.929 202.733 279.208 210.001C279.482 217.129 277.92 224.431 280.68 232.386C287.835 231.988 294.869 232.383 301.569 231.071C319.49 227.564 325.531 215.842 318.066 197.395ZM305.732 138.481C297.075 136.253 288.436 135.078 279.755 138.315C279.755 150.681 279.755 162.453 279.755 175.31C287.234 174.974 294.155 175.18 300.915 174.232C309.736 172.995 316.207 166.734 317.63 159.351C319.349 150.426 316.532 144.903 305.732 138.481Z" fill="#EA2530"/>
<path d="M56.9066 194.292C56.907 171.388 56.907 149.483 56.907 127.36C72.6358 124.397 87.4618 123.252 102.323 126.474C115.952 129.429 124.724 138.344 126.228 150C127.593 160.577 123.718 168.875 115.482 175.311C113.66 176.735 111.604 177.86 108.884 179.623C111.462 181.173 113.58 182.482 115.731 183.734C126.182 189.814 131.464 198.994 130.948 210.972C130.404 223.619 124.435 233.339 112.649 238.468C107.241 240.821 101.267 242.116 95.4203 243.166C83.791 245.254 67.045 244.451 56.9062 241.629C56.9062 226.389 56.9063 210.841 56.9066 194.292ZM113.568 201.884C106.135 188.66 93.1321 184.139 72.6064 187.875C72.6064 202.18 72.6064 216.562 72.6064 232.432C80.7421 231.948 88.3894 232.361 95.6501 230.879C110.89 227.77 116.277 219.057 113.568 201.884ZM71.9941 162.917C71.9941 166.778 71.9941 170.639 71.9941 174.754C82.9576 175.618 92.6014 176.376 101.494 171.561C108.176 167.943 111.711 162.012 111.207 154.315C110.735 147.102 107.168 141.471 100.242 138.996C91.3416 135.815 82.1676 135.388 71.9942 138.189C71.9942 145.887 71.9942 153.461 71.9941 162.917Z" fill="#EB222D"/>
<path d="M431.566 216.297C428.129 229.859 419.817 237.688 407.233 241.09C391.221 245.42 375.082 244.939 358.461 242.606C358.461 203.923 358.461 165.819 358.461 127.304C373.716 124.41 388.551 123.073 403.353 126.475C415.019 129.157 424.374 135.182 427.174 147.86C429.452 158.179 426.224 166.936 418.37 173.919C416.146 175.896 413.586 177.495 410.19 179.997C425.653 187.145 434.444 198.077 431.566 216.297ZM373.435 193.763C373.435 206.242 373.435 218.721 373.435 231.383C383.398 232.568 391.933 232.873 400.285 230.127C411.116 226.567 416.216 219.422 415.892 208.631C415.599 198.911 409.794 191.175 399.424 188.811C392.398 187.208 384.984 187.264 377.733 186.71C374.078 186.432 373.379 188.907 373.435 193.763ZM404.229 140.436C394.593 135.428 384.572 135.743 374.078 137.708C374.078 150.369 374.078 162.447 374.078 175.621C381.648 175.168 388.619 175.32 395.377 174.195C402.931 172.937 409.274 168.97 411.358 161.008C413.32 153.512 412.288 146.446 404.229 140.436Z" fill="#EA2530"/>
<path d="M884.961 138.815C884.961 134.607 884.961 131.323 884.961 127.421C901.324 124.284 917.105 122.772 932.742 127.224C944.321 130.521 952.857 137.359 954.339 150.517C955.441 160.302 952.111 168.153 944.658 174.348C942.44 176.191 939.982 177.743 936.992 179.889C939.828 181.514 942.115 182.738 944.318 184.099C963.928 196.213 964.182 224.314 944.461 236.39C939.496 239.431 933.502 241.215 927.74 242.442C914.714 245.215 897.323 244.76 884.961 241.878C884.961 208.038 884.961 173.888 884.961 138.815ZM942.939 207.83C942.104 201.278 939.617 195.597 933.733 192.1C923.25 185.868 911.963 186.113 900.573 187.201C900.573 202.567 900.573 216.715 900.573 231.74C907.643 231.74 914.252 232.412 920.673 231.603C934.798 229.823 940.604 223.664 942.939 207.83ZM900.005 166.638C900.181 169.196 900.357 171.754 900.562 174.726C910.751 175.821 920.343 176.372 929.27 171.713C936.427 167.978 939.874 161.669 939.157 153.593C938.471 145.855 934.089 140.739 926.662 138.408C917.935 135.669 909.224 135.821 900.005 137.914C900.005 147.518 900.005 156.152 900.005 166.638Z" fill="#EB222D"/>
<path d="M169.177 213.743C175.565 227.961 182.596 232.82 195.205 232.337C206.744 231.895 215.126 226.422 218.69 215.506C220.816 208.994 221.723 201.853 221.87 194.967C222.283 175.668 222.016 156.354 222.017 137.045C222.018 133.733 222.017 130.421 222.017 126.415C227.261 126.415 232.047 126.415 237.673 126.415C237.673 133.312 237.676 139.906 237.672 146.501C237.662 162.813 238.058 179.141 237.458 195.431C237.167 203.304 235.894 211.395 233.485 218.878C229.328 231.787 220.114 240.666 206.693 243.143C198.373 244.678 189.382 244.784 181.032 243.431C168.716 241.437 159.935 233.465 155.747 221.693C153.331 214.901 151.584 207.513 151.412 200.348C150.844 176.725 151.125 153.082 151.118 129.447C151.118 128.514 151.507 127.582 151.816 126.191C156.42 126.191 160.906 126.191 166.381 126.191C166.381 130.151 166.38 133.726 166.381 137.302C166.388 155.611 166.172 173.925 166.518 192.228C166.649 199.152 168.076 206.051 169.177 213.743Z" fill="#EB222D"/>
<path d="M553.865 125.689C568.797 125.688 582.753 125.688 597.353 125.688C597.353 130.09 597.353 133.858 597.353 138.472C581.786 138.472 566.54 138.472 550.554 138.472C550.554 150.732 550.554 162.181 550.554 174.774C565.114 176.383 580.013 174.489 595.075 175.879C595.075 179.944 595.075 183.471 595.075 188.022C580.138 188.022 565.629 188.022 550.467 188.022C550.467 202.197 550.467 215.369 550.467 229.932C566.639 230.674 583.122 229.789 600.033 230.434C600.033 234.676 600.033 238.209 600.033 242.414C578.425 242.414 556.955 242.414 534.883 242.414C534.883 203.685 534.883 165.226 534.883 125.689C541.043 125.689 546.966 125.689 553.865 125.689Z" fill="#EA2530"/>
<path d="M636.095 165.099C642.598 169.202 648.56 172.752 654.636 176.094C660.731 179.447 667.495 181.85 672.999 185.963C690.904 199.344 689.556 227.154 670.164 238.254C651.967 248.67 633.337 246.143 614.109 237.744C615.481 233.194 616.593 229.507 617.81 225.47C624.071 227.441 629.597 230.161 635.337 230.736C642.45 231.448 650.224 231.893 656.856 229.773C671.473 225.1 674.339 206.505 662.247 196.993C657.641 193.37 651.761 191.378 646.498 188.575C640.073 185.154 633.004 182.513 627.415 178.036C612.139 165.801 613.073 143.232 628.72 131.49C641.872 121.621 665.094 120.902 680.242 130.349C679.23 133.542 678.156 136.931 676.875 140.971C674.329 140.326 672.232 139.603 670.075 139.284C663.546 138.32 656.908 136.381 650.467 136.867C634.611 138.063 628.586 149.876 636.095 165.099Z" fill="#EA2530"/>
<path d="M1260.81 183.25C1251.94 177.901 1245.29 171.653 1243.42 161.649C1240.72 147.225 1247.1 134.206 1260.81 128.065C1275.9 121.309 1291.03 122.414 1306.79 129.433C1305.37 133.655 1304.14 137.267 1302.79 141.284C1298.59 140.016 1295.17 138.871 1291.69 137.955C1284.82 136.145 1277.94 135.666 1271.03 137.929C1264.05 140.21 1259.54 144.783 1258.55 152.05C1257.64 158.843 1260.15 164.676 1266.02 168.357C1270.79 171.34 1276 173.6 1281.01 176.193C1286.9 179.241 1293.29 181.602 1298.57 185.483C1318.57 200.197 1315.44 230.057 1292.68 240.278C1275.53 247.986 1258.35 245.726 1240.61 237.868C1241.79 233.542 1242.87 229.595 1244.01 225.458C1250.21 227.437 1255.44 229.984 1260.89 230.618C1267.69 231.41 1274.83 231.491 1281.54 230.296C1289.35 228.905 1294.31 223.34 1295.54 215.247C1296.74 207.328 1294.18 200.596 1287.44 196.158C1283.03 193.257 1278.09 191.139 1273.3 188.842C1269.41 186.972 1265.39 185.356 1260.81 183.25Z" fill="#EA2530"/>
<path d="M467.694 150.327C467.694 177.22 467.694 203.119 467.694 229.966C484.573 229.966 500.416 229.966 517 229.966C517 234.64 517 238.377 517 242.527C495.584 242.527 474.385 242.527 452.672 242.527C452.672 203.81 452.672 165.609 452.672 126.528C457.272 126.528 461.993 126.528 467.694 126.528C467.694 134.174 467.694 141.753 467.694 150.327Z" fill="#EA2530"/>
<path d="M1405.43 379.661C1408.74 362.302 1418.44 351.135 1434.56 346.729C1449.36 342.686 1462.93 346.23 1474 357.277C1486.96 370.21 1489.32 389.954 1480.04 405.957C1471.08 421.417 1453.17 428.941 1435.59 424.631C1417.88 420.285 1405.77 405.584 1405.06 387.435C1404.97 385.121 1405.24 382.793 1405.43 379.661ZM1456.35 357.752C1452.8 357.048 1449.25 355.839 1445.68 355.726C1430.27 355.239 1417.1 366.776 1415.53 381.784C1413.84 398.037 1423.32 411.363 1439.11 414.912C1453.94 418.246 1468.93 409.623 1473.71 395.011C1478.53 380.262 1472.97 367.395 1456.35 357.752Z" fill="#302D2C"/>
<path d="M569.169 341.671C568.342 349.915 568.342 349.915 560.711 349.793C560.711 326.762 560.711 303.702 560.711 280.639C569.786 278.766 569.869 278.714 574.31 285.734C582.664 298.944 590.895 312.233 599.229 325.457C600.36 327.252 601.789 328.859 604.451 332.353C604.451 313.669 604.451 297.267 604.451 280.154C607.525 279.918 609.944 279.732 613.018 279.496C613.018 303.336 613.018 326.433 613.018 349.367C606.966 351.793 603.382 349.849 600.334 344.731C592.337 331.302 583.936 318.113 575.656 304.853C574.175 302.483 572.499 300.235 569.169 298.473C569.169 312.564 569.169 326.655 569.169 341.671Z" fill="#E82D37"/>
<path d="M672.877 347.716C665.374 351.167 658.316 352.379 650.824 350.931C641.779 349.183 634.578 344.605 630.317 336.505C622.818 322.25 622.75 307.601 630.733 293.572C637.529 281.63 648.668 277.013 662.05 278.472C675.342 279.922 683.799 287.788 687.877 300.299C693.83 318.556 688.265 336.488 672.877 347.716ZM637.442 328.597C638.171 330.08 638.804 331.62 639.646 333.035C644.103 340.526 650.668 344.621 659.426 343.755C668.127 342.895 673.997 337.624 677.133 329.643C681.046 319.686 681.264 309.535 676.916 299.637C673.139 291.039 666.799 285.854 656.896 286.076C646.917 286.299 641.044 292.105 637.652 300.725C634.27 309.321 634.379 318.208 637.442 328.597Z" fill="#E82D37"/>
<path d="M347.237 278.794C349.792 279.012 351.449 279.141 353.084 279.408C373.023 282.657 383.388 294.502 383.162 313.75C382.924 334.078 371.738 347.665 352.159 350.042C343.705 351.068 335.022 350.214 326.539 350.214C324.429 342.895 323.943 292.742 325.934 280.047C332.581 279.63 339.455 279.199 347.237 278.794ZM350.75 342.707C369.184 338.03 377.712 322.358 371.981 303.692C367.513 289.142 351.241 282.459 334.308 288.435C334.308 306.175 334.308 324.013 334.308 342.97C339.49 342.97 344.324 342.97 350.75 342.707Z" fill="#EA2530"/>
<path d="M1010.79 290.927C1010.79 287.057 1010.79 284.107 1010.79 280.941C1020.18 278.303 1029.01 278.084 1037.93 279.63C1045.74 280.983 1051.78 284.803 1053.84 292.79C1055.91 300.833 1053.96 307.95 1047.13 313.288C1046.12 314.078 1045.21 314.992 1043.64 316.388C1053 325.497 1052.45 338.02 1056.64 349.091C1047.34 350.588 1047.29 350.603 1045.3 343.766C1044.37 340.579 1043.72 337.311 1042.89 334.094C1039.52 321.047 1035.25 318.49 1020.25 321.193C1020.25 330.492 1020.25 339.986 1020.25 349.915C1016.82 349.915 1014.3 349.915 1010.79 349.915C1010.79 330.291 1010.79 311.069 1010.79 290.927ZM1036.74 311.421C1044.96 305.621 1047.05 300.897 1044.3 294.302C1041.2 286.852 1033.82 284.724 1020.68 287.691C1020.68 295.689 1020.68 303.767 1020.68 311.927C1025.95 311.927 1030.55 311.927 1036.74 311.421Z" fill="#E82D37"/>
<path d="M394.957 348.434C394.695 325.355 394.695 303.09 394.695 279.452C407.575 279.233 419.984 279.188 432.836 279.518C432.836 282.266 432.836 284.141 432.836 287.312C423.437 287.312 414.31 287.312 404.664 287.312C404.664 295.059 404.664 301.512 404.664 309.08C413.658 309.08 422.173 309.08 431.002 309.08C431.249 312.033 431.406 313.907 431.639 316.684C422.304 317.073 413.554 317.438 404.589 317.811C404.589 326.36 404.589 333.893 404.589 342.04C414.329 342.04 423.59 342.04 433.718 342.04C434.023 344.904 434.272 347.246 434.672 351.002C420.843 350.387 408.031 349.818 394.957 348.434Z" fill="#E82D37"/>
<path d="M1223.3 320.327C1223.15 327.919 1223.15 334.525 1223.15 342.158C1233.35 342.158 1242.85 342.158 1252.94 342.158C1252.94 345.269 1252.94 347.34 1252.94 349.903C1239.99 349.903 1227.45 349.903 1214.17 349.903C1214.17 326.659 1214.17 303.585 1214.17 279.906C1226.42 279.906 1238.57 279.906 1251.36 279.906C1251.36 282.145 1251.36 284.228 1251.36 287.242C1242.21 287.242 1233.34 287.242 1223.78 287.242C1223.78 294.897 1223.78 301.644 1223.78 309.197C1232.57 309.197 1240.79 309.197 1249.66 309.197C1249.81 312.049 1249.92 314.136 1250.07 317.216C1243.87 317.216 1238.26 316.977 1232.68 317.31C1229.58 317.495 1226.53 318.632 1223.3 320.327Z" fill="#E82D37"/>
<path d="M959.298 314.295C959.299 302.381 959.299 291.465 959.299 279.988C972.257 279.988 984.409 279.988 996.986 279.988C997.189 282.023 997.375 283.882 997.695 287.094C987.937 287.094 978.832 287.094 969.113 287.094C969.113 294.843 969.113 301.315 969.113 308.945C977.745 308.945 986.221 308.945 995.279 308.945C995.279 312.204 995.279 314.314 995.279 317.169C986.632 317.169 978.389 317.169 969.297 317.169C969.297 325.653 969.297 333.419 969.297 342.168C978.737 342.168 988.261 342.168 998.454 342.168C998.633 345.15 998.756 347.211 998.913 349.823C985.708 349.823 973.174 349.823 959.297 349.823C959.297 338.294 959.297 326.794 959.298 314.295Z" fill="#EB222D"/>
<path d="M548.402 349.582C545.5 350.071 543.213 350.071 540.14 350.071C537.594 343.1 535.017 336.044 532.335 328.701C524.074 328.701 516.2 328.701 507.584 328.701C505.258 335.447 502.898 342.29 500.295 349.838C497.537 349.975 494.779 350.112 490.5 350.324C498.716 326.086 506.538 303.01 514.422 279.753C518.279 279.753 521.537 279.753 526.241 279.753C533.757 302.635 541.387 325.865 548.402 349.582ZM518.002 294.404C515.382 302.82 512.762 311.237 510.064 319.903C517.104 319.903 523.185 319.903 530.022 319.903C526.904 310.172 524.086 301.341 521.135 292.554C521.093 292.43 519.367 292.872 518.002 294.404Z" fill="#E82D37"/>
<path d="M1100.69 306.8C1103.89 297.595 1106.78 289.119 1109.87 280.047C1112.98 280.047 1115.99 280.047 1119.99 280.047C1111.53 303.739 1103.41 326.5 1095.06 349.91C1091.8 350.089 1088.61 350.264 1084.54 350.487C1076.87 326.988 1069.31 303.826 1061.48 279.818C1065.53 279.818 1068.36 279.818 1071.69 279.818C1077.57 298.358 1083.34 316.573 1089.11 334.788C1089.77 334.844 1090.42 334.9 1091.07 334.956C1094.18 325.813 1097.28 316.671 1100.69 306.8Z" fill="#E82D37"/>
<path d="M791.936 350.395C787.689 350.394 784.409 350.394 780.375 350.394C780.375 326.636 780.375 303.564 780.375 279.896C792.592 279.896 804.755 279.896 817.491 279.896C817.491 282.214 817.491 284.306 817.491 287.314C808.208 287.314 799.353 287.314 789.87 287.314C789.87 294.695 789.87 301.187 789.87 308.879C798.292 308.879 806.715 308.879 815.763 308.879C815.763 312.146 815.763 314.233 815.763 317.05C807.233 317.05 798.992 317.05 789.988 317.05C789.988 325.535 789.988 333.31 789.988 342.143C799.497 342.143 808.983 342.143 818.762 342.143C819.178 344.308 819.58 345.526 819.589 346.747C819.596 347.646 819.089 348.549 818.519 350.395C810.062 350.395 801.482 350.395 791.936 350.395Z" fill="#E82D37"/>
<path d="M733.352 343.681C733.599 351.55 729.406 350.806 724.289 349.636C724.289 326.668 724.289 303.854 724.289 280.709C733.173 278.395 742.002 277.871 750.898 279.82C760.944 282.021 766.471 287.888 767.516 297.168C768.656 307.282 764.169 316.337 754.833 319.715C748.425 322.035 741.331 322.459 733.354 323.954C733.354 329.664 733.354 336.217 733.352 343.681ZM753.277 289.54C747.313 285.579 740.912 285.889 733.91 287.084C733.91 296.347 733.91 305.091 733.91 314.146C742.195 315.246 750.036 316.097 755.309 308.93C759.665 303.008 759.271 296.514 753.277 289.54Z" fill="#E82D37"/>
<path d="M1723.98 107.072C1730.84 103.171 1737.86 99.7823 1747.57 100.659C1757.1 102.415 1763.43 106.979 1769.24 112.446C1776.28 124.123 1778.28 136.055 1770.32 149.552C1767.47 153.056 1765.36 155.461 1763.26 157.865C1763.26 157.865 1763.59 158.139 1762.84 158.113C1759.96 159.442 1757.83 160.797 1755.7 162.153C1741.05 166.087 1728.42 163.221 1717.85 150.101C1715.94 146.789 1714.68 144.536 1713.43 142.283C1713.19 136.944 1712.96 131.605 1713.1 124.888C1715.25 119.772 1717.04 116.034 1718.82 112.296C1718.82 112.296 1719.3 111.889 1719.89 111.369C1721.65 109.59 1722.81 108.331 1723.98 107.072ZM1731.28 112.334C1729.32 114.111 1727.09 115.667 1725.45 117.702C1718.2 126.719 1718.64 139.252 1726.32 147.843C1733.99 156.425 1746.5 158.259 1756.21 152.225C1765.92 146.19 1769.96 133.981 1765.7 123.549C1761.18 112.507 1749.64 106.53 1738.16 109.4C1736.25 109.877 1734.46 110.831 1731.28 112.334Z" fill="#302D2C"/>
<path d="M1274.48 342.763C1278.63 342.917 1281.99 343.318 1285.2 342.784C1290.18 341.955 1293.74 338.99 1294.74 333.819C1295.73 328.717 1293.78 324.594 1289.46 321.851C1286.67 320.084 1283.57 318.819 1280.62 317.305C1277.37 315.637 1273.86 314.325 1270.95 312.191C1259.01 303.425 1260.82 286.678 1274.4 280.621C1283.07 276.752 1291.83 277.469 1301.11 281.341C1300.63 283.694 1300.2 285.77 1299.77 287.865C1298.33 287.977 1297.35 288.195 1296.4 288.104C1291.48 287.637 1286.54 286.46 1281.68 286.754C1277.03 287.036 1273.84 290.347 1272.99 295.13C1272.21 299.481 1273.86 303.235 1277.6 305.386C1282.2 308.027 1287.2 309.958 1291.96 312.333C1299.26 315.974 1304.36 321.244 1304.64 329.982C1304.91 338.712 1300.78 345.496 1292.66 348.918C1283.94 352.59 1275.11 351.926 1266.3 349.098C1261.23 347.469 1261.41 344.431 1264.47 340.197C1267.36 340.953 1270.49 341.772 1274.48 342.763Z" fill="#E82D37"/>
<path d="M941.922 287.113C939.24 287.471 937.017 287.063 934.777 286.926C931.142 286.706 927.432 286.184 923.874 286.671C919.669 287.247 916.579 289.915 915.49 294.242C914.292 299.003 915.9 303.036 919.997 305.443C924.567 308.127 929.613 309.985 934.326 312.444C944.275 317.633 948.173 324.668 946.596 334.148C945.006 343.713 938.256 349.985 927.028 350.847C921.179 351.297 915.121 350.363 909.292 349.308C903.989 348.349 903.069 344.985 906.661 340.181C910.269 341.091 914.033 342.611 917.88 342.858C922.071 343.127 926.686 343.111 930.499 341.63C938.088 338.683 939.577 329.222 933.621 323.557C931.277 321.328 928.143 319.861 925.223 318.324C921.99 316.622 918.447 315.483 915.29 313.663C908.363 309.671 904.575 303.752 905.475 295.496C906.374 287.251 911.455 282.396 918.912 279.732C925.767 277.282 932.662 277.874 939.55 279.776C943.409 280.842 944.273 283.04 941.922 287.113Z" fill="#E82D37"/>
<path d="M1169.11 291.203C1158.54 301.722 1155.61 315.686 1160.8 328.211C1165.08 338.534 1174.92 344.206 1187.43 343.318C1191.66 343.018 1195.85 342.208 1199.86 341.659C1202.74 345.555 1202.5 348.586 1198.06 349.575C1183.6 352.798 1169.19 353.288 1158.05 341.588C1146.49 329.457 1145.9 314.586 1151.53 299.709C1156.93 285.445 1168.6 278.93 1183.43 278.368C1189.27 278.147 1195.17 279.366 1202.08 280.028C1201.32 283.446 1200.82 285.736 1200.24 288.389C1189.29 285.834 1179.15 284.569 1169.11 291.203Z" fill="#E82D37"/>
<path d="M846.264 316.296C846.264 306.391 846.264 297.484 846.264 287.814C838.963 287.814 832.755 287.814 825.982 287.814C825.551 285.021 825.227 282.92 824.781 280.028C842.54 280.028 859.623 280.028 877.115 280.028C877.239 282.192 877.348 284.087 877.518 287.047C870.259 287.371 863.479 287.673 855.993 288.007C855.993 309.083 855.993 329.294 855.993 349.994C852.698 349.994 850.182 349.994 846.263 349.994C846.263 338.996 846.263 328.144 846.264 316.296Z" fill="#E82D37"/>
<path d="M467.838 342.354C474.056 342.354 479.323 342.354 485.172 342.354C485.172 345.278 485.172 347.351 485.172 349.898C472.314 349.898 459.841 349.898 446.75 349.898C446.75 326.599 446.75 303.789 446.75 279.996C449.296 279.87 452.029 279.735 455.61 279.558C455.61 300.598 455.61 320.749 455.61 342.354C459.888 342.354 463.387 342.354 467.838 342.354Z" fill="#E82D37"/>
<path d="M1788.97 97.9362C1784.46 98.066 1779.95 98.1956 1774.05 97.9355C1767.78 93.559 1762.9 89.5726 1758.01 85.5861C1757.38 83.3571 1756.61 81.1577 1756.15 78.894C1754.04 68.4988 1758.77 57.956 1767.92 52.4534C1776.65 47.2027 1787.79 47.9204 1795.93 54.2588C1804.17 60.6733 1807.13 70.3394 1804.09 80.8036C1803.81 81.7549 1803.71 82.7579 1802.93 84.8986C1800.5 88.431 1798.67 90.8016 1796.84 93.1722C1796.84 93.1722 1796.81 93.3742 1796.14 93.6442C1793.31 95.2548 1791.14 96.5955 1788.97 97.9362ZM1766.82 86.0715C1768.95 87.6017 1770.92 89.4967 1773.26 90.5938C1780.27 93.8842 1787.01 92.7415 1792.64 87.6648C1798.14 82.7005 1800.66 76.4516 1798.26 68.8779C1795.84 61.2512 1790.2 56.4431 1782.55 55.7245C1775.34 55.0472 1769.49 57.5658 1765.43 63.5842C1760.62 70.7093 1761.02 77.8778 1766.82 86.0715Z" fill="#383636"/>
<path d="M1137.47 332.118C1137.47 338.4 1137.47 343.711 1137.47 350.1C1134.26 350.34 1131.21 350.568 1127.66 350.832C1127.66 326.492 1127.66 303.013 1127.66 279.07C1130.77 279.07 1133.59 279.07 1137.47 279.07C1137.47 296.746 1137.47 313.946 1137.47 332.118Z" fill="#EA2530"/>
<path d="M1401.63 320.021C1410.36 323.49 1415.41 329.11 1416.37 337.91C1417.67 349.942 1409.59 360.426 1397.82 362.063C1386.87 363.584 1375.76 355.39 1373.81 344.365C1371.81 332.985 1378.7 322.261 1390.19 319.722C1393.58 318.973 1397.31 319.753 1401.63 320.021ZM1386.42 326.935C1377.5 335.67 1376.79 341.437 1384.2 352.005C1389.81 356.809 1395.96 357.939 1402.59 354.41C1410.09 350.427 1413.06 341.499 1409.57 333.952C1405.77 325.741 1397.91 323.103 1386.42 326.935Z" fill="#383636"/>
<path d="M1366.62 373.184C1370.01 369.506 1373.52 367.844 1377.83 368.698C1383.12 369.745 1387.14 375.031 1386.85 380.358C1386.55 385.992 1382.27 390.389 1376.69 390.812C1370.82 391.256 1365.9 388.073 1364.96 382.357C1364.51 379.634 1365.71 376.641 1366.62 373.184ZM1370.2 380.458C1369.86 379.221 1369.52 377.984 1369.19 376.748C1368.83 376.794 1368.47 376.841 1368.11 376.888C1368.28 378.988 1368.45 381.088 1369.23 384.485C1372.37 388.494 1376.14 389.306 1380.36 386.352C1383.74 383.981 1384.7 380.484 1383.14 376.79C1381.37 372.622 1378.09 371.004 1374.11 372.569C1372.73 375.914 1371.51 378.866 1370.2 380.458Z" fill="#383636"/>
<path d="M11.7946 60.0499C11.6987 59.5069 12.1159 58.8831 13.1499 58.394C13.2803 59.0089 12.794 59.489 11.7946 60.0499Z" fill="#D8D8D6"/>
<path d="M1711.19 31.3064C1715.83 38.6062 1717.28 45.7432 1715.45 54.2835C1710.95 47.1459 1707.74 39.8341 1702.54 34.4223C1697.55 29.2263 1690.51 25.9996 1684.38 21.9077C1695.36 18.5038 1700.94 20.3571 1711.19 31.3064Z" fill="#383636"/>
<path d="M1433.96 365.832C1450.89 360.712 1460.92 365.013 1466.63 379.552C1460.31 376.559 1454.49 372.606 1448.1 371.116C1441.96 369.685 1435.22 370.807 1427.84 370.807C1429.97 368.997 1431.64 367.572 1433.96 365.832Z" fill="#383636"/>
<path d="M1761.61 133.425C1760.72 134.334 1759.18 134.783 1759.12 134.636C1755.44 125.438 1748.57 119.647 1738.88 116.31C1750.64 112.234 1758.81 118.387 1761.61 133.425Z" fill="#383636"/>
<path d="M1793.22 68.3943C1793.68 71.1616 1793.83 73.3002 1793.97 75.2853C1788.73 70.2385 1783.75 65.436 1778.37 60.2548C1784.81 59.2586 1789.46 62.1293 1793.22 68.3943Z" fill="#383636"/>
<path d="M1384.55 345.437C1383.23 340.654 1382.96 335.751 1387.49 331.267C1388.57 330.369 1389.34 330.114 1391.01 330.19C1391.91 330.521 1392.5 331.212 1392.5 331.212C1390.05 335.88 1387.61 340.548 1384.55 345.437Z" fill="#383636"/>
<path d="M1391.62 330.18C1392.35 329.534 1393.37 329.23 1394.4 328.925C1394.08 329.535 1393.77 330.144 1392.98 330.983C1392.5 331.212 1391.91 330.521 1391.62 330.18Z" fill="#383636"/>
</svg>
