<svg xmlns="http://www.w3.org/2000/svg" width="411" height="468" fill="none"><path fill="#000" d="M177.237 77.906c13.587 39.555 21.098 79.908 16.338 121.939-1.629 14.382-6.712 26.996-17.287 37.191-9.391 9.053-20.349 12.431-33.34 10.831-13.364-1.647-25.93-5.744-38.284-10.731-10.043-4.053-19.812-8.686-29.098-14.316-5.175-3.136-6.13-2.642-7.969 3.206-.847 2.696-1.672 5.409-2.711 8.034-10.725 27.092-28.273 49.633-47.563 70.982C11.9 311.045 6.217 316.812 0 323.377c91.268 26.012 163.797 80.475 230.828 143.899 19.467-38.77 29.112-78.774 19.849-121.87-1.028 0-1.406-.11-1.665.018-1.341.663-2.646 1.397-3.973 2.088-14.849 7.739-29.944 14.502-47.272 14.095-13.971-.329-22.814-6.302-27.818-19.387-3.256-8.512-3.995-17.45-4.407-26.432-.635-13.865 1.206-27.24 8.527-39.351 7.853-12.991 19.921-17.911 34.546-14.052 14.797 3.904 27.802 11.136 38.453 22.178 2.81 2.913 4.958 2.798 8.143.948 4.268-2.479 3.984-6.135 3.325-10.015-1.001-5.903-1.75-11.8-1.7-17.824.159-18.992 10.397-31.302 29.096-34.884 16.54-3.168 33.404-2.917 50.057-4.906 16.956-2.024 31.836-8.259 43.465-21.075 11.386-12.55 18.212-27.763 24.538-43.209 4.182-10.209 7.413-20.637 6.97-31.904-.357-9.103-3.626-13.86-12.408-16.442-5.246-1.543-10.651-2.562-16.008-3.71-15.253-3.269-30.721-5.62-45.232-11.821-11.81-5.047-20.349-12.873-24.284-25.467-2.429-7.777-5.574-15.335-9.242-22.63-7.198-14.314-17.634-25.72-32.519-31.853C248.487.383 224.424-1.322 200.147.833c-20.565 1.826-39.928 8.396-58.723 16.773-18.786 8.374-35.735 19.109-49.022 35.23C80.909 66.78 71.28 81.92 62.036 97.364c-7.288 12.176-13.865 24.669-17.81 38.393-4.992 17.375-2.441 32.717 11.369 45.539 6.99 6.49 14.24 12.55 22.26 17.674 19.702 12.588 39.787 24.515 63.067 29.208 9.703 1.955 19.848 3.092 26.515-7.132 1.72-2.637 3.349-5.405 4.524-8.314 8.79-21.767 7.354-44.29 4.505-66.835-2.271-17.97-6.599-35.563-10.255-53.28-1.405-6.806-2.947-13.689-2.276-20.75.224-2.354.736-4.908 3.318-5.66 2.824-.82 4.822 1.054 6.104 3.302 1.394 2.444 2.394 5.113 3.88 8.397M238.903 298c-11.092-9.212-22.763-17.372-37.161-20.649-8.832-2.011-13.81.674-17.198 9.162-2.186 5.478-3.146 11.246-3.603 17.007-.984 12.42.332 24.572 6.134 35.881 2.708 5.279 7.078 8.126 13.005 7.33 15.066-2.024 29.045-7.041 41.41-16.099 2.84-2.08 3.958-4.763 2.985-8.296-.942-3.422-1.246-7.15-.328-10.399 1.663-5.891-.172-10.015-5.244-13.937m90.779 45.937c9.23-.049 10.785-1.33 13.015-10.166 3.263-12.935 2.7-26.08 1.928-39.174-.277-4.715-1.18-9.555-3.401-13.951-2.689-5.323-5.878-6.825-11.787-5.686-15.229 2.936-27.783 10.597-38.63 21.446-1.998 1.999-2.204 3.555-.834 6.048 4.24 7.716 4.987 15.83 1.237 23.937-1.493 3.226-.464 4.951 2.225 6.45 11.01 6.136 22.622 10.342 36.247 11.096M314.61 387.16c-3.974-7.503-7.853-15.058-11.949-22.494-4.043-7.339-8.903-13.993-15.752-19.126-5.158-3.864-9.215-.172-13.405 1.527-3.417 1.386-2.108 5.045-1.757 7.604 1.288 9.387 3.558 18.553 6.529 27.589 5.981 18.193 17.553 29.507 37.181 31.256 6.472.577 13.033 1.109 20.097-2.449-8.787-6.867-15.745-14.175-20.944-23.907m-31.759-60.948c2.019-3.882 3.572-7.833 2.55-12.372-2.59-11.508-9.617-16.493-21.833-15.406-6.587.587-10.531 4.264-10.914 10.765-.362 6.145-.084 12.299.753 18.425.444 3.257 2.336 5.563 5.247 5.897 8.745 1.006 17.409 1 24.197-7.309"/></svg>